GIL08_free1_ik
nRows=3
nColumns=375

# SIMM Motion File Header:
name GIL08_free1_ik
datacolumns 375
datarows 3
otherdata 1
range 0.15000000 0.16667000
endheader
time	pelvis_tx	pelvis_ty	pelvis_tz	pelvis_tilt	pelvis_list	pelvis_rotation	hip_flexion_r	hip_adduction_r	hip_rotation_r	knee_angle_r	ankle_angle_r	hip_flexion_l	hip_adduction_l	hip_rotation_l	knee_angle_l	ankle_angle_l	lumbar_extension	lumbar_bending	lumbar_rotation	subtalar_angle_r	mtp_angle_r	subtalar_angle_l	mtp_angle_l	asis_r_px	asis_r_py	asis_r_pz	asis_l_px	asis_l_py	asis_l_pz	midasis_px	midasis_py	midasis_pz	psis_r_px	psis_r_py	psis_r_pz	psis_l_px	psis_l_py	psis_l_pz	hip_r_px	hip_r_py	hip_r_pz	hip_l_px	hip_l_py	hip_l_pz	midhip_px	midhip_py	midhip_pz	epicondLat_r_px	epicondLat_r_py	epicondLat_r_pz	epicondMed_r_px	epicondMed_r_py	epicondMed_r_pz	thighwand_r_px	thighwand_r_py	thighwand_r_pz	upperleg1_r_px	upperleg1_r_py	upperleg1_r_pz	upperleg2_r_px	upperleg2_r_py	upperleg2_r_pz	malleolusLat_r_px	malleolusLat_r_py	malleolusLat_r_pz	malleolusMedv_r_px	malleolusMedv_r_py	malleolusMedv_r_pz	shankwand_r_px	shankwand_r_py	shankwand_r_pz	lowerleg1_r_px	lowerleg1_r_py	lowerleg1_r_pz	knee_r_px	knee_r_py	knee_r_pz	ankle_r_px	ankle_r_py	ankle_r_pz	toe_r_px	toe_r_py	toe_r_pz	epicondLat_l_px	epicondLat_l_py	epicondLat_l_pz	epicondMed_l_px	epicondMed_l_py	epicondMed_l_pz	thighwand_l_px	thighwand_l_py	thighwand_l_pz	upperleg1_l_px	upperleg1_l_py	upperleg1_l_pz	upperleg2_l_px	upperleg2_l_py	upperleg2_l_pz	malleolusLat_l_px	malleolusLat_l_py	malleolusLat_l_pz	malleolusMedv_l_px	malleolusMedv_l_py	malleolusMedv_l_pz	shankwand_l_px	shankwand_l_py	shankwand_l_pz	lowerleg1_l_px	lowerleg1_l_py	lowerleg1_l_pz	knee_l_px	knee_l_py	knee_l_pz	ankle_l_px	ankle_l_py	ankle_l_pz	toe_l_px	toe_l_py	toe_l_pz	subclavicle_r_px	subclavicle_r_py	subclavicle_r_pz	subclavicle_l_px	subclavicle_l_py	subclavicle_l_pz	neck_px	neck_py	neck_pz	sternalnotch_px	sternalnotch_py	sternalnotch_pz	xyphoidprocess_px	xyphoidprocess_py	xyphoidprocess_pz	midhip_tx	midhip_ty	midhip_tz	hip_r_tx	hip_r_ty	hip_r_tz	hip_l_tx	hip_l_ty	hip_l_tz	knee_r_tx	knee_r_ty	knee_r_tz	knee_l_tx	knee_l_ty	knee_l_tz	ankle_r_tx	ankle_r_ty	ankle_r_tz	ankle_l_tx	ankle_l_ty	ankle_l_tz	midasis_tx	midasis_ty	midasis_tz	asis_r_tx	asis_r_ty	asis_r_tz	asis_l_tx	asis_l_ty	asis_l_tz	psis_r_tx	psis_r_ty	psis_r_tz	psis_l_tx	psis_l_ty	psis_l_tz	epicondLat_r_tx	epicondLat_r_ty	epicondLat_r_tz	epicondLat_l_tx	epicondLat_l_ty	epicondLat_l_tz	epicondMed_r_tx	epicondMed_r_ty	epicondMed_r_tz	epicondMed_l_tx	epicondMed_l_ty	epicondMed_l_tz	malleolusLat_r_tx	malleolusLat_r_ty	malleolusLat_r_tz	malleolusLat_l_tx	malleolusLat_l_ty	malleolusLat_l_tz	malleolusMedv_r_tx	malleolusMedv_r_ty	malleolusMedv_r_tz	malleolusMedv_l_tx	malleolusMedv_l_ty	malleolusMedv_l_tz	neck_tx	neck_ty	neck_tz	subclavicle_r_tx	subclavicle_r_ty	subclavicle_r_tz	subclavicle_l_tx	subclavicle_l_ty	subclavicle_l_tz	sternalnotch_tx	sternalnotch_ty	sternalnotch_tz	xyphoidprocess_tx	xyphoidprocess_ty	xyphoidprocess_tz	thighwand_r_tx	thighwand_r_ty	thighwand_r_tz	thighwand_l_tx	thighwand_l_ty	thighwand_l_tz	upperleg1_r_tx	upperleg1_r_ty	upperleg1_r_tz	upperleg1_l_tx	upperleg1_l_ty	upperleg1_l_tz	upperleg2_r_tx	upperleg2_r_ty	upperleg2_r_tz	upperleg2_l_tx	upperleg2_l_ty	upperleg2_l_tz	shankwand_r_tx	shankwand_r_ty	shankwand_r_tz	shankwand_l_tx	shankwand_l_ty	shankwand_l_tz	lowerleg1_r_tx	lowerleg1_r_ty	lowerleg1_r_tz	lowerleg1_l_tx	lowerleg1_l_ty	lowerleg1_l_tz	toe_r_tx	toe_r_ty	toe_r_tz	toe_l_tx	toe_l_ty	toe_l_tz	ground_force_vx	ground_force_vy	ground_force_vz	ground_force_px	ground_force_py	ground_force_pz	ground_force_vx	ground_force_vy	ground_force_vz	ground_force_px	ground_force_py	ground_force_pz	ground_torque_x	ground_torque_y	ground_torque_z	ground_torque_x	ground_torque_y	ground_torque_z	ground_marker_px	ground_marker_py	ground_marker_pz	ground_marker_px	ground_marker_py	ground_marker_pz	ground_marker_px	ground_marker_py	ground_marker_pz	ground_marker_px	ground_marker_py	ground_marker_pz	ground_marker_px	ground_marker_py	ground_marker_pz	ground_marker_px	ground_marker_py	ground_marker_pz	ground_marker_px	ground_marker_py	ground_marker_pz	ground_marker_px	ground_marker_py	ground_marker_pz	ground_marker_px	ground_marker_py	ground_marker_pz	ground_marker_px	ground_marker_py	ground_marker_pz	ground_marker_px	ground_marker_py	ground_marker_pz	ground_marker_px	ground_marker_py	ground_marker_pz	ground_marker_px	ground_marker_py	ground_marker_pz	ground_marker_px	ground_marker_py	ground_marker_pz	ground_marker_px	ground_marker_py	ground_marker_pz	ground_marker_px	ground_marker_py	ground_marker_pz	ground_marker_px	ground_marker_py	ground_marker_pz	ground_marker_px	ground_marker_py	ground_marker_pz	ground_marker_px	ground_marker_py	ground_marker_pz	ground_marker_px	ground_marker_py	ground_marker_pz	ground_marker_px	ground_marker_py	ground_marker_pz	ground_marker_px	ground_marker_py	ground_marker_pz	ground_marker_px	ground_marker_py	ground_marker_pz	ground_marker_px	ground_marker_py	ground_marker_pz	ground_marker_px	ground_marker_py	ground_marker_pz	ground_marker_px	ground_marker_py	ground_marker_pz	ground_marker_px	ground_marker_py	ground_marker_pz	ground_marker_px	ground_marker_py	ground_marker_pz	ground_marker_px	ground_marker_py	ground_marker_pz	ground_marker_px	ground_marker_py	ground_marker_pz	ground_marker_px	ground_marker_py	ground_marker_pz	ground_marker_px	ground_marker_py	ground_marker_pz	ground_marker_px	ground_marker_py	ground_marker_pz	ground_marker_px	ground_marker_py	ground_marker_pz	ground_marker_px	ground_marker_py	ground_marker_pz	ground_marker_px	ground_marker_py	ground_marker_pz	ground_marker_px	ground_marker_py	ground_marker_pz
      0.15000000	      1.35390645	      0.94563564	     -0.23211236	      2.69037650	      5.22727866	     -4.54789835	    -10.20048570	     -7.37138785	      9.13677070	    -37.70969584	    -21.58403583	     15.98627947	      6.15111117	      9.09912437	    -17.16148826	     -1.41494520	     -6.81235599	     -8.68271982	      8.26211307	      0.00000000	      0.00000000	      0.00000000	      0.00000000	      1.39386107	      0.95763720	     -0.12783956	      1.40255840	      0.98123563	     -0.33930369	      1.36550925	      0.94609662	     -0.23119257	      1.19336764	      0.96643994	     -0.19833898	      1.19457772	      0.97684421	     -0.28588617	      1.29267657	      0.88203886	     -0.17280071	      1.30308961	      0.89516131	     -0.31073495	      1.29788309	      0.88860009	     -0.24176783	      1.28651383	      0.44387107	     -0.11752099	      1.25206683	      0.46577941	     -0.23097502	      1.34661310	      0.55704205	     -0.04947903	      1.35642975	      0.61400988	     -0.12354806	      1.34169681	      0.53313699	     -0.14359185	      0.92264994	      0.17257411	     -0.08620280	      0.91479942	      0.17197643	     -0.15429022	      0.99825980	      0.20512528	     -0.02875722	      1.02548720	      0.25454048	     -0.09393157	      1.23650325	      0.46810120	     -0.16272019	      0.93951093	      0.17752156	     -0.12972434	      0.94659240	      0.05809915	     -0.13828370	      1.48666473	      0.49677296	     -0.35461960	      1.44238015	      0.49336570	     -0.25593450	      1.55860372	      0.67125044	     -0.26976183	      1.48072336	      0.70521298	     -0.32770976	      1.49860627	      0.62029338	     -0.32684956	      1.44283158	      0.06456919	     -0.35131395	      1.43581453	      0.07013697	     -0.28204647	      1.54097299	      0.17179757	     -0.28083965	      1.47788789	      0.22271189	     -0.30541764	      1.42984279	      0.50072966	     -0.29420144	      1.44045307	      0.08433700	     -0.30950710	      1.56342482	      0.03961699	     -0.29337196	      1.33208257	      1.36063345	     -0.16512914	      1.32658478	      1.35745296	     -0.32064766	      1.22946617	      1.43067893	     -0.25138963	      1.31687744	      1.36021595	     -0.24643606	      1.35544532	      1.15898037	     -0.25034544	      1.29337900	      0.88307000	     -0.24195600	      1.28865600	      0.86846700	     -0.19502900	      1.29715200	      0.87763300	     -0.30086300	      1.23280600	      0.45727000	     -0.17293200	      1.43039000	      0.48383400	     -0.28992100	      0.93413400	      0.16631200	     -0.15540900	      1.43653800	      0.06805300	     -0.27938600	      1.37378800	      0.96696100	     -0.23332000	      1.36558300	      0.95811000	     -0.13111500	      1.38199300	      0.97581300	     -0.33552400	      1.17317600	      0.99742500	     -0.20523200	      1.17675000	      1.00228600	     -0.29045400	      1.23899000	      0.45960800	     -0.11380100	      1.44570500	      0.48742100	     -0.34730500	      1.24775100	      0.45948800	     -0.22840300	      1.40758100	      0.48073300	     -0.24635500	      0.92843700	      0.17436900	     -0.11871300	      1.43943500	      0.06709800	     -0.31876800	      0.93662100	      0.17538100	     -0.18610000	      1.44206600	      0.07612100	     -0.24927700	      1.23055700	      1.45134500	     -0.25132800	      1.33399900	      1.38474300	     -0.16740500	      1.32969800	      1.37959500	     -0.32425300	      1.31938700	      1.38300000	     -0.24948000	      1.36283600	      1.18268600	     -0.25084900	      1.28212000	      0.56230700	     -0.03365500	      1.53089000	      0.64999500	     -0.27776300	      1.31246500	      0.61745900	     -0.10454000	      1.45426900	      0.68366200	     -0.33754800	      1.30598100	      0.53469900	     -0.12295700	      1.46854100	      0.59760100	     -0.32899800	      0.98887600	      0.22962800	     -0.05289200	      1.53760900	      0.18406500	     -0.26230300	      1.02388900	      0.27328300	     -0.11734400	      1.47194500	      0.22935000	     -0.28419000	      0.95914200	      0.05211200	     -0.18557100	      1.56490900	      0.04274300	     -0.27640900	      0.00000000	      0.00000000	      0.00000000	      1.94790283	      0.00000000	     -0.15659389	    -72.38696254	    570.94134352	     17.36413273	      1.45259790	      0.00000000	     -0.28527222	      0.00000000	      0.00000000	      0.00000000	      0.00000000	      0.93820056	      0.00000000	      1.29337931	      0.88307023	     -0.24195579	      1.28865576	      0.86846727	     -0.19502884	      1.29715180	      0.87763298	     -0.30086344	      1.23280561	      0.45727032	     -0.17293230	      1.43039036	      0.48383412	     -0.28992134	      0.93413353	      0.16631201	     -0.15540934	      1.43653834	      0.06805271	     -0.27938583	      1.37378788	      0.96696138	     -0.23331988	      1.36558318	      0.95811009	     -0.13111547	      1.38199258	      0.97581273	     -0.33552429	      1.17317641	      0.99742454	     -0.20523159	      1.17675042	      1.00228572	     -0.29045373	      1.23899019	      0.45960787	     -0.11380077	      1.44570482	      0.48742118	     -0.34730473	      1.24775147	      0.45948768	     -0.22840327	      1.40758121	      0.48073310	     -0.24635498	      0.92843723	      0.17436936	     -0.11871285	      1.43943453	      0.06709763	     -0.31876794	      0.93662059	      0.17538066	     -0.18609975	      1.44206607	      0.07612112	     -0.24927710	      1.23055696	      1.45134473	     -0.25132766	      1.33399880	      1.38474286	     -0.16740511	      1.32969797	      1.37959516	     -0.32425264	      1.31938720	      1.38300002	     -0.24948007	      1.36283612	      1.18268597	     -0.25084850	      1.28212047	      0.56230676	     -0.03365455	      1.53088975	      0.64999509	     -0.27776292	      1.31246519	      0.61745948	     -0.10453963	      1.45426869	      0.68366230	     -0.33754778	      1.30598056	      0.53469938	     -0.12295745	      1.46854103	      0.59760118	     -0.32899815	      0.98887646	      0.22962788	     -0.05289177	      1.53760934	      0.18406454	     -0.26230332	      1.02388883	      0.27328297	     -0.11734395	      1.47194481	      0.22934978	     -0.28419012	      0.95914197	      0.05211240	     -0.18557099	      1.56490934	      0.04274290	     -0.27640915
      0.15833000	      1.36382932	      0.94740589	     -0.23242039	      2.69971583	      5.26104453	     -4.53955328	     -8.89233287	     -7.54960211	      8.76461428	    -39.82222354	    -22.40339424	     15.14513837	      6.23935143	      9.16001400	    -16.83886744	     -0.91990993	     -6.74869135	     -8.79106113	      8.50921426	      0.00000000	      0.00000000	      0.00000000	      0.00000000	      1.40379982	      0.95935383	     -0.12814753	      1.41245649	      0.98307683	     -0.33959938	      1.37543220	      0.94786838	     -0.23150234	      1.20329268	      0.96816222	     -0.19860721	      1.20448581	      0.97861764	     -0.28614854	      1.30262089	      0.88376381	     -0.17313519	      1.31300780	      0.89696836	     -0.31106357	      1.30781435	      0.89036608	     -0.24209938	      1.30600082	      0.44584822	     -0.11566041	      1.27198295	      0.46640301	     -0.22949658	      1.36295185	      0.56069716	     -0.04772218	      1.37206662	      0.61750740	     -0.12200164	      1.35934382	      0.53622104	     -0.14174743	      0.93747125	      0.17775784	     -0.08507185	      0.93019249	      0.17668106	     -0.15321688	      1.01303545	      0.20975413	     -0.02725565	      1.04150108	      0.25822322	     -0.09261119	      1.25604563	      0.46824095	     -0.16139355	      0.95476896	      0.18209551	     -0.12848692	      0.95855790	      0.06246281	     -0.13615388	      1.49078034	      0.49598256	     -0.35518025	      1.44645863	      0.49316443	     -0.25649322	      1.56524968	      0.66935177	     -0.27023388	      1.48786575	      0.70447216	     -0.32815671	      1.50451483	      0.61930160	     -0.32734415	      1.44298830	      0.06443083	     -0.35149209	      1.43601222	      0.07012466	     -0.28223073	      1.54208840	      0.17082818	     -0.28109988	      1.47947127	      0.22229043	     -0.30573331	      1.43394863	      0.50074264	     -0.29477533	      1.44078328	      0.08425719	     -0.30970347	      1.56374402	      0.03949754	     -0.29359435	      1.34197086	      1.36251789	     -0.16603839	      1.33577517	      1.35917181	     -0.32152720	      1.23890161	      1.43237930	     -0.25190737	      1.32639983	      1.36200240	     -0.24727548	      1.36513688	      1.16079868	     -0.25115183	      1.30388900	      0.88561200	     -0.24322200	      1.29841300	      0.86988900	     -0.19552000	      1.30700500	      0.87918300	     -0.30133600	      1.25169000	      0.45676000	     -0.17237200	      1.43435400	      0.48393500	     -0.29076400	      0.94947500	      0.17053800	     -0.15306900	      1.43656700	      0.06810500	     -0.27953800	      1.38357100	      0.96843800	     -0.23361500	      1.37529200	      0.95948400	     -0.13166400	      1.39184900	      0.97739100	     -0.33556700	      1.18262700	      0.99866400	     -0.20597400	      1.18631800	      1.00413700	     -0.29111200	      1.25728300	      0.45944300	     -0.11319700	      1.44978100	      0.48737100	     -0.34812700	      1.26656700	      0.45873600	     -0.22796700	      1.41121600	      0.48126700	     -0.24723700	      0.94439800	      0.17838200	     -0.11623600	      1.43946900	      0.06705700	     -0.31891800	      0.95062900	      0.18090800	     -0.18346900	      1.44212700	      0.07616700	     -0.24934500	      1.24009900	      1.45277400	     -0.25189400	      1.34353700	      1.38644800	     -0.16828100	      1.33890600	      1.38129500	     -0.32505000	      1.32875200	      1.38468900	     -0.25029000	      1.37240400	      1.18442000	     -0.25174800	      1.29721600	      0.56286800	     -0.03322700	      1.53688500	      0.64880200	     -0.27832400	      1.32719200	      0.61819500	     -0.10395900	      1.46095000	      0.68352600	     -0.33829500	      1.32240100	      0.53530500	     -0.12219000	      1.47401300	      0.59728900	     -0.32970500	      1.00653100	      0.23220400	     -0.05086900	      1.53869200	      0.18313700	     -0.26261300	      1.04065400	      0.27609800	     -0.11507000	      1.47389400	      0.22931600	     -0.28439300	      0.97085100	      0.05615500	     -0.18523200	      1.56486000	      0.04270500	     -0.27645400	      0.00000000	      0.00000000	      0.00000000	      1.95125464	      0.00000000	     -0.15753586	    -68.39021080	    578.78701025	     17.19966843	      1.45210840	      0.00000000	     -0.28530533	      0.00000000	      0.00000000	      0.00000000	      0.00000000	      0.95877124	      0.00000000	      1.30388927	      0.88561159	     -0.24322164	      1.29841304	      0.86988932	     -0.19552028	      1.30700541	      0.87918264	     -0.30133599	      1.25169003	      0.45675981	     -0.17237249	      1.43435371	      0.48393458	     -0.29076427	      0.94947457	      0.17053781	     -0.15306936	      1.43656743	      0.06810515	     -0.27953824	      1.38357055	      0.96843755	     -0.23361523	      1.37529194	      0.95948368	     -0.13166374	      1.39184916	      0.97739142	     -0.33556673	      1.18262696	      0.99866450	     -0.20597416	      1.18631816	      1.00413656	     -0.29111201	      1.25728261	      0.45944297	     -0.11319671	      1.44978118	      0.48737097	     -0.34812662	      1.26656699	      0.45873618	     -0.22796677	      1.41121578	      0.48126689	     -0.24723710	      0.94439769	      0.17838241	     -0.11623613	      1.43946910	      0.06705748	     -0.31891757	      0.95062870	      0.18090759	     -0.18346860	      1.44212663	      0.07616664	     -0.24934548	      1.24009871	      1.45277369	     -0.25189382	      1.34353721	      1.38644779	     -0.16828118	      1.33890641	      1.38129461	     -0.32505035	      1.32875180	      1.38468921	     -0.25029019	      1.37240398	      1.18441987	     -0.25174811	      1.29721606	      0.56286764	     -0.03322698	      1.53688478	      0.64880180	     -0.27832413	      1.32719243	      0.61819494	     -0.10395930	      1.46095037	      0.68352604	     -0.33829471	      1.32240093	      0.53530467	     -0.12219016	      1.47401273	      0.59728885	     -0.32970476	      1.00653064	      0.23220359	     -0.05086916	      1.53869247	      0.18313651	     -0.26261327	      1.04065371	      0.27609757	     -0.11506973	      1.47389412	      0.22931604	     -0.28439346	      0.97085100	      0.05615506	     -0.18523227	      1.56485975	      0.04270491	     -0.27645418
      0.16667000	      1.37351028	      0.94903392	     -0.23273271	      2.68175253	      5.25155903	     -4.50617094	     -7.52891786	     -7.63421916	      8.42141513	    -41.92161086	    -21.94798462	     14.34746388	      6.27800600	      9.16864849	    -16.53017574	     -0.43570734	     -6.68857609	     -8.82495648	      8.69497517	      0.00000000	      0.00000000	      0.00000000	      0.00000000	      1.41354350	      0.96099153	     -0.12848502	      1.42208544	      0.98467156	     -0.33994636	      1.38511380	      0.94949357	     -0.23182138	      1.21299840	      0.96983853	     -0.19883175	      1.21414419	      0.98027678	     -0.28637576	      1.31231921	      0.88541918	     -0.17340026	      1.32263069	      0.89859447	     -0.31133710	      1.31747495	      0.89200683	     -0.24236868	      1.32552513	      0.44793513	     -0.11408629	      1.29189387	      0.46723393	     -0.22825671	      1.37925605	      0.56435744	     -0.04620305	      1.38759681	      0.62107043	     -0.12064760	      1.37693118	      0.53943018	     -0.14015023	      0.95267334	      0.18274953	     -0.08451972	      0.94594067	      0.18126799	     -0.15271327	      1.02817233	      0.21418274	     -0.02631079	      1.05780465	      0.26179682	     -0.09177617	      1.27563394	      0.46849479	     -0.16029025	      0.97038202	      0.18654331	     -0.12781989	      0.97361523	      0.06683401	     -0.13447967	      1.49464643	      0.49514627	     -0.35582426	      1.45044240	      0.49292981	     -0.25706913	      1.57169160	      0.66742327	     -0.27095299	      1.49472232	      0.70364929	     -0.32874723	      1.51016656	      0.61825161	     -0.32798056	      1.44296996	      0.06426737	     -0.35157919	      1.43613907	      0.07010169	     -0.28231504	      1.54311247	      0.16985420	     -0.28144228	      1.48092439	      0.22184622	     -0.30605014	      1.43790710	      0.50070644	     -0.29534924	      1.44099895	      0.08415991	     -0.30981033	      1.56397011	      0.03935701	     -0.29390226	      1.35171749	      1.36424507	     -0.16676599	      1.34494152	      1.36080238	     -0.32222848	      1.24828756	      1.43399644	     -0.25229004	      1.33584267	      1.36367209	     -0.24794387	      1.37467977	      1.16248814	     -0.25184523	      1.31392100	      0.88773600	     -0.24465100	      1.30799100	      0.87122800	     -0.19576800	      1.31662600	      0.88057300	     -0.30157500	      1.27075900	      0.45657100	     -0.17190600	      1.43819200	      0.48406900	     -0.29149200	      0.96518200	      0.17476900	     -0.15126500	      1.43655800	      0.06818900	     -0.27964300	      1.39319700	      0.96976600	     -0.23377900	      1.38489300	      0.96077900	     -0.13203200	      1.40150100	      0.97875200	     -0.33552700	      1.19201900	      0.99986000	     -0.20670100	      1.19571400	      1.00592800	     -0.29178400	      1.27578900	      0.45952600	     -0.11269300	      1.45363600	      0.48734500	     -0.34885900	      1.28567500	      0.45869500	     -0.22787000	      1.41455400	      0.48185300	     -0.24808200	      0.96081000	      0.18222100	     -0.11426000	      1.43944800	      0.06705600	     -0.31902100	      0.96545000	      0.18611200	     -0.18150600	      1.44209800	      0.07624500	     -0.24942700	      1.24968900	      1.45422300	     -0.25227800	      1.35297600	      1.38818600	     -0.16904200	      1.34802500	      1.38292800	     -0.32579100	      1.33802300	      1.38637100	     -0.25101600	      1.38170500	      1.18610800	     -0.25243000	      1.31250400	      0.56359000	     -0.03289200	      1.54266100	      0.64755900	     -0.27898200	      1.34218500	      0.61922900	     -0.10343800	      1.46740800	      0.68337700	     -0.33899800	      1.33907200	      0.53642400	     -0.12159800	      1.47918000	      0.59696700	     -0.33041800	      1.02479300	      0.23437100	     -0.04927700	      1.53965300	      0.18224400	     -0.26290800	      1.05747200	      0.27880300	     -0.11323900	      1.47483800	      0.22889600	     -0.28483000	      0.98522800	      0.06064000	     -0.18492400	      1.56476700	      0.04270200	     -0.27646700	      0.00000000	      0.00000000	      0.00000000	      1.95497363	      0.00000000	     -0.15849136	    -63.42277368	    585.00886241	     16.65825623	      1.45151733	      0.00000000	     -0.28532004	      0.00000000	      0.00000000	      0.00000000	      0.00000000	      0.98513397	      0.00000000	      1.31392145	      0.88773572	     -0.24465105	      1.30799067	      0.87122762	     -0.19576776	      1.31662643	      0.88057280	     -0.30157536	      1.27075875	      0.45657051	     -0.17190631	      1.43819225	      0.48406902	     -0.29149178	      0.96518224	      0.17476884	     -0.15126465	      1.43655753	      0.06818938	     -0.27964303	      1.39319706	      0.96976578	     -0.23377922	      1.38489282	      0.96077913	     -0.13203166	      1.40150142	      0.97875237	     -0.33552676	      1.19201922	      0.99986047	     -0.20670079	      1.19571364	      1.00592756	     -0.29178360	      1.27578878	      0.45952627	     -0.11269304	      1.45363581	      0.48734504	     -0.34885913	      1.28567517	      0.45869541	     -0.22786956	      1.41455448	      0.48185319	     -0.24808168	      0.96080989	      0.18222065	     -0.11425988	      1.43944812	      0.06705610	     -0.31902081	      0.96545005	      0.18611196	     -0.18150578	      1.44209814	      0.07624481	     -0.24942666	      1.24968922	      1.45422280	     -0.25227755	      1.35297596	      1.38818622	     -0.16904199	      1.34802461	      1.38292813	     -0.32579133	      1.33802283	      1.38637078	     -0.25101602	      1.38170469	      1.18610764	     -0.25243026	      1.31250417	      0.56359047	     -0.03289194	      1.54266059	      0.64755851	     -0.27898225	      1.34218550	      0.61922854	     -0.10343767	      1.46740758	      0.68337679	     -0.33899763	      1.33907247	      0.53642386	     -0.12159814	      1.47918010	      0.59696746	     -0.33041829	      1.02479279	      0.23437074	     -0.04927721	      1.53965259	      0.18224393	     -0.26290795	      1.05747151	      0.27880317	     -0.11323863	      1.47483778	      0.22889625	     -0.28483000	      0.98522764	      0.06064003	     -0.18492393	      1.56476676	      0.04270193	     -0.27646717
